{"title":"Kung.Fu.Panda.2.720p.norsktale.mkv","uid":6953227,"size":2487888072,"categoryP":"video","categoryS":"hd___movies","magnet":"?xt=urn:btih:2fb9d0ac04225fac6c475e0395c535f9aa21a28b&amp;dn=Kung.Fu.Panda.2.720p.norsktale.mkv&amp;tr=udp%3A%2F%2Ftracker.openbittorrent.com%3A80&amp;tr=udp%3A%2F%2Fopen.demonii.com%3A1337&amp;tr=udp%3A%2F%2Ftracker.coppersurfer.tk%3A6969&amp;tr=udp%3A%2F%2Fexodus.desync.com%3A6969","seeders":2,"leechers":0,"uploader":"norsktale","files":1,"time":1326478657,"description":"Video og engelsk lyd fra: Kung.Fu.Panda.2.720p.BluRay.x264-MHD\nNorsk lyd fra: Kung.Fu.Panda.2.2011.NORWEGiAN.DVDRiP.XViD-SLAKTAD\n\n\nMediaInfo:\n\nGeneral\nUnique ID                        : 176021035308634982399733351701904621791 (0x846C6B14062ECC29B1E2E223401000DF)\nComplete name                    : E:\\Nedlasting\\Utorrent\\Egne\\Kung.Fu.Panda.2.720p.norsktale\\Kung.Fu.Panda.2.720p.norsktale.mkv\nFormat                           : Matroska\nFormat version                   : Version 2\nFile size                        : 2.32 GiB\nDuration                         : 1h 30mn\nOverall bit rate mode            : Variable\nOverall bit rate                 : 3 669 Kbps\nEncoded date                     : UTC 2012-01-09 20:34:39\nWriting application              : mkvmerge v5.2.1 ('A Far Off Place') built on Jan  2 2012 23:21:10\nWriting library                  : libebml v1.2.3 + libmatroska v1.3.0\n\nVideo\nID                               : 1\nFormat                           : AVC\nFormat/Info                      : Advanced Video Codec\nFormat profile                   : &lt;a class=&quot;__cf_email__&quot; href=&quot;/cdn-cgi/l/email-protection&quot; data-cfemail=&quot;f3bb9a949bb3bfc7ddc2&quot;&gt;[email&amp;#160;protected]&lt;/a&gt;&lt;script cf-hash='f9e31' type=&quot;text/javascript&quot;&gt;\n/* &lt;![CDATA[ */!function(){try{var t=&quot;currentScript&quot;in document?document.currentScript:function(){for(var t=document.getElementsByTagName(&quot;script&quot;),e=t.length;e--;)if(t[e].getAttribute(&quot;cf-hash&quot;))return t[e]}();if(t&amp;&amp;t.previousSibling){var e,r,n,i,c=t.previousSibling,a=c.getAttribute(&quot;data-cfemail&quot;);if(a){for(e=&quot;&quot;,r=parseInt(a.substr(0,2),16),n=2;a.length-n;n+=2)i=parseInt(a.substr(n,2),16)^r,e+=String.fromCharCode(i);e=document.createTextNode(e),c.parentNode.replaceChild(e,c)}}}catch(u){}}();/* ]]&gt; */&lt;/script&gt;\nFormat settings, CABAC           : Yes\nFormat settings, ReFrames        : 5 frames\nMuxing mode                      : Header stripping\nCodec ID                         : V_MPEG4/ISO/AVC\nDuration                         : 1h 30mn\nBit rate                         : 2 816 Kbps\nWidth                            : 1 280 pixels\nHeight                           : 544 pixels\nDisplay aspect ratio             : 2.35:1\nFrame rate                       : 23.976 fps\nColor space                      : YUV\nChroma subsampling               : 4:2:0\nBit depth                        : 8 bits\nScan type                        : Progressive\nBits/(Pixel*Frame)               : 0.169\nStream size                      : 1.71 GiB (74%)\nTitle                            : Video\nWriting library                  : x264 core 118 r2085 8a62835\nEncoding settings                : cabac=1 / ref=5 / deblock=1:0:0 / analyse=0x3:0x113 / me=umh / subme=7 / psy=1 / psy_rd=1.00:0.15 / mixed_ref=1 / me_range=16 / chroma_me=1 / trellis=1 / 8x8dct=1 / cqm=0 / deadzone=21,11 / fast_pskip=0 / chroma_qp_offset=-3 / threads=3 / sliced_threads=0 / nr=0 / decimate=1 / interlaced=0 / bluray_compat=0 / constrained_intra=0 / bframes=3 / b_pyramid=2 / b_adapt=1 / b_bias=0 / direct=1 / weightb=1 / open_gop=0 / weightp=2 / keyint=250 / keyint_min=23 / scenecut=40 / intra_refresh=0 / rc_lookahead=40 / rc=2pass / mbtree=1 / bitrate=2816 / ratetol=1.0 / qcomp=0.60 / qpmin=0 / qpmax=69 / qpstep=4 / cplxblur=20.0 / qblur=0.5 / ip_ratio=1.40 / aq=1:1.00\nLanguage                         : English\nDefault                          : Yes\nForced                           : Yes\n\nAudio #1\nID                               : 2\nFormat                           : Vorbis\nFormat settings, Floor           : 1\nCodec ID                         : A_VORBIS\nDuration                         : 1h 30mn\nBit rate mode                    : Variable\nBit rate                         : 256 Kbps\nChannel(s)                       : 2 channels\nSampling rate                    : 48.0 KHz\nCompression mode                 : Lossy\nStream size                      : 166 MiB (7%)\nWriting library                  : libVorbis 1.2 (UTC 2007-06-22)\nLanguage                         : Norwegian\nDefault                          : Yes\nForced                           : No\n\nAudio #2\nID                               : 3\nFormat                           : AC-3\nFormat/Info                      : Audio Coding 3\nMode extension                   : CM (complete main)\nMuxing mode                      : Header stripping\nCodec ID                         : A_AC3\nDuration                         : 1h 30mn\nBit rate mode                    : Constant\nBit rate                         : 640 Kbps\nChannel(s)                       : 6 channels\nChannel positions                : Front: L C R, Side: L R, LFE\nSampling rate                    : 48.0 KHz\nBit depth                        : 16 bits\nCompression mode                 : Lossy\nStream size                      : 414 MiB (17%)\nLanguage                         : English\nDefault                          : No\nForced                           : No\n\nText #1\nID                               : 4\nFormat                           : UTF-8\nCodec ID                         : S_TEXT/UTF8\nCodec ID/Info                    : UTF-8 Plain Text\nLanguage                         : Norwegian\nDefault                          : No\nForced                           : No\n\nText #2\nID                               : 5\nFormat                           : UTF-8\nCodec ID                         : S_TEXT/UTF8\nCodec ID/Info                    : UTF-8 Plain Text\nLanguage                         : English\nDefault                          : No\nForced                           : No\n\n","torrent":{"xt":"urn:btih:2fb9d0ac04225fac6c475e0395c535f9aa21a28b","amp;dn":"Kung.Fu.Panda.2.720p.norsktale.mkv","amp;tr":["udp%3A%2F%2Ftracker.openbittorrent.com%3A80","udp%3A%2F%2Fopen.demonii.com%3A1337","udp%3A%2F%2Ftracker.coppersurfer.tk%3A6969","udp%3A%2F%2Fexodus.desync.com%3A6969"],"infoHash":"2fb9d0ac04225fac6c475e0395c535f9aa21a28b","infoHashBuffer":{"type":"Buffer","data":[47,185,208,172,4,34,95,172,108,71,94,3,149,197,53,249,170,33,162,139]},"announce":[],"urlList":[]}}